<svg fill="none" height="1080" viewBox="0 0 1920 1080" width="1920" xmlns="http://www.w3.org/2000/svg"><path d="m0 0h1920v1080h-1920z" fill="#000"/><g fill="#fff"><path d="m552 380c8.301 0 16.454.632 24.414 1.851l-2.288 14.826c-7.214-1.104-14.603-1.677-22.126-1.677-7.522 0-14.911.573-22.125 1.677l-2.288-14.826c7.959-1.219 16.112-1.851 24.413-1.851z"/><path d="m589.97 384.532-3.56 14.575c14.619 3.558 28.371 9.333 40.879 16.947l7.788-12.822c-13.802-8.402-28.976-14.774-45.107-18.7z"/><path d="m646.559 410.918-8.865 12.102c11.954 8.772 22.515 19.332 31.287 31.287l12.101-8.865c-9.679-13.191-21.332-24.844-34.523-34.524z"/><path d="m688.769 456.924-12.822 7.788c7.614 12.508 13.388 26.26 16.946 40.879l14.575-3.56c-3.926-16.131-10.297-31.305-18.699-45.107z"/><path d="m710.149 515.587-14.826 2.289c1.104 7.213 1.677 14.602 1.677 22.124 0 7.523-.573 14.912-1.677 22.126l14.826 2.288c1.219-7.96 1.851-16.113 1.851-24.414s-.632-16.453-1.851-24.413z"/><path d="m675.946 615.289c7.614-12.508 13.389-26.26 16.947-40.879l14.575 3.56c-3.926 16.131-10.298 31.305-18.7 45.107z"/><path d="m668.98 625.694 12.102 8.865c-9.68 13.191-21.333 24.844-34.524 34.523l-8.865-12.101c11.955-8.772 22.515-19.332 31.287-31.287z"/><path d="m627.288 663.947 7.788 12.822c-13.802 8.402-28.976 14.773-45.107 18.699l-3.56-14.575c14.619-3.558 28.371-9.332 40.879-16.946z"/><path d="m574.124 683.323 2.289 14.826c-7.959 1.219-16.112 1.851-24.413 1.851s-16.454-.632-24.415-1.851l2.289-14.824c7.211 1.103 14.599 1.675 22.126 1.675 7.522 0 14.911-.573 22.124-1.677z"/><path d="m517.589 680.896-3.559 14.572c-12.118-2.95-23.695-7.279-34.557-12.812l-15.185 3.543-3.409-14.607 20.521-4.788 4.882 2.486c9.837 5.012 20.324 8.934 31.307 11.606z"/><path d="m448.219 674.546 3.409 14.607-26.029 6.074c-17.322 4.042-32.868-11.504-28.826-28.826l6.074-26.029 14.607 3.409-6.073 26.029c-1.516 6.495 4.314 12.325 10.809 10.809z"/><path d="m420.408 631.121-14.607-3.409 3.543-15.185c-5.533-10.862-9.863-22.44-12.812-34.558l14.572-3.559c2.672 10.983 6.594 21.47 11.605 31.308l2.487 4.882z"/><path d="m408.675 562.125-14.824 2.288c-1.219-7.96-1.851-16.112-1.851-24.413s.632-16.454 1.851-24.414l14.826 2.288c-1.104 7.214-1.677 14.603-1.677 22.126 0 7.526.572 14.914 1.675 22.125z"/><path d="m411.107 505.59-14.575-3.56c3.926-16.131 10.298-31.305 18.7-45.107l12.822 7.788c-7.614 12.508-13.389 26.26-16.947 40.879z"/><path d="m435.02 454.306-12.102-8.865c9.68-13.191 21.333-24.844 34.524-34.523l8.865 12.101c-11.955 8.772-22.515 19.333-31.287 31.287z"/><path d="m476.712 416.053-7.789-12.822c13.803-8.402 28.977-14.773 45.108-18.699l3.56 14.575c-14.619 3.558-28.371 9.332-40.879 16.946z"/><path d="m682 540c0 71.797-58.203 130-130 130-22.773 0-44.179-5.856-62.793-16.144-1.792-.99-3.883-1.317-5.878-.852l-57.827 13.493 13.493-57.827c.466-1.994.139-4.085-.852-5.878-10.287-18.614-16.143-40.019-16.143-62.792 0-71.797 58.203-130 130-130s130 58.203 130 130z"/><path d="m958.946 466.555c-10.937 0-19.961-9.024-19.961-19.961 0-10.938 9.024-19.961 19.961-19.961 10.938 0 19.961 9.023 19.961 19.961 0 10.937-9.023 19.961-19.961 19.961z"/><path d="m942.403 638v-152.852h33.086v152.852z"/><path d="m1508.16 638v-208.906h-33.09v208.906z"/><path clip-rule="evenodd" d="m1309.43 561.574c0 50.723 27.35 78.887 63.58 78.887 19.14 0 34.45-9.981 44.02-27.07v24.609h33.5v-152.852h-33.5v24.473c-9.57-17.09-24.47-26.933-43.07-26.933-37.18 0-64.53 28.164-64.53 78.886zm109.51 0c0 30.762-12.98 51.817-37.32 51.817-24.61 0-37.6-22.286-37.6-51.817s12.99-50.859 37.6-50.859c24.34 0 37.32 20.097 37.32 50.859z" fill-rule="evenodd"/><path d="m1193.7 548.176v89.824h-33.77v-152.852h31.99l.41 29.942c9.3-21.328 25.02-31.856 47.17-31.856 31.44 0 52.23 20.508 52.23 57.559v97.207h-33.77v-92.285c0-21.055-11.63-33.633-30.63-33.633-19.55 0-33.63 13.262-33.63 36.094z"/><path clip-rule="evenodd" d="m1064.7 698.43c38.97 0 70.68-18.047 70.68-62.754v-150.528h-33.08v26.524c-9.57-18.184-25.29-28.984-45.53-28.984-36.23 0-63.573 27.48-63.573 76.562s27.343 76.562 63.573 76.562c19.96 0 35.55-10.39 45.12-28.3v29.941c0 22.012-13.13 34.863-37.19 34.863-16.95 0-29.67-6.562-33.91-19.824h-32.124c4.514 28.574 28.304 45.938 66.034 45.938zm38.01-139.18c0 29.258-12.99 49.492-37.33 49.492-24.61 0-37.59-21.465-37.59-49.492s12.98-48.535 37.59-48.535c24.34 0 37.33 19.277 37.33 48.535z" fill-rule="evenodd"/><path d="m769.656 579.484c1.778 38.965 31.172 61.797 77.93 61.797 48.262 0 76.289-24.746 76.289-60.156 0-35.957-31.035-50.996-59.336-57.969l-19.414-5.058c-15.996-4.102-35.547-11.075-35.547-29.121 0-16.27 14.766-28.165 38.555-28.165 22.422 0 37.871 10.391 39.922 28.301h33.086c-.957-33.359-29.668-57.558-72.461-57.558-41.973 0-73.418 23.789-73.418 59.336 0 28.437 19.961 45.527 53.593 54.414l23.516 6.289c21.875 5.742 37.598 12.578 37.598 29.258 0 18.593-17.91 30.898-42.657 30.898-23.242 0-42.109-10.254-43.75-32.266z"/></g></svg>